<svg data-name="Layer 1" xmlns="http://www.w3.org/2000/svg" viewBox="0 0 222.64 248.51"><path fill="#c2e6fa" d="m68.52 220.17-14.03-22.39-26.14 3.85 58.6-127.04h48.73L68.52 220.17z"/><path d="M36.61 103.06c0 41.26 33.45 74.71 74.71 74.71s74.71-33.45 74.71-74.71-33.45-74.71-74.71-74.71-74.71 33.45-74.71 74.71Zm121.08 0c0 25.61-20.76 46.37-46.37 46.37s-46.37-20.76-46.37-46.37 20.76-46.37 46.37-46.37 46.37 20.76 46.37 46.37Z" fill="#006d68"/><path d="M36.61 103.06h28.34s.04-2.23.12-3.33c1.71-24.05 21.76-43.04 46.25-43.04s44.71 19.14 46.27 43.33c.07 1.01.1 3.04.1 3.04h28.34s-.02-2.02-.06-3.02c-1.59-39.86-34.4-71.69-74.65-71.69S38.6 59.84 36.69 99.41c-.06 1.21-.09 3.65-.09 3.65Z" fill="#3c3c3c"/><path fill="#00e7ff" d="m194.29 201.63-26.14-3.85-14.04 22.39L86.95 74.59h48.73l58.61 127.04z"/></svg>